<?xml version="1.0" standalone="no"?>
<!DOCTYPE svg PUBLIC "-//W3C//DTD SVG 20010904//EN"
 "http://www.w3.org/TR/2001/REC-SVG-20010904/DTD/svg10.dtd">
<svg version="1.0" xmlns="http://www.w3.org/2000/svg"
 width="332.000000pt" height="332.000000pt" viewBox="0 0 332.000000 332.000000"
 preserveAspectRatio="xMidYMid meet">
<metadata>
Created by potrace 1.11, written by Peter Selinger 2001-2013
</metadata>
<g transform="translate(0.000000,332.000000) scale(0.100000,-0.100000)"
fill="#000000" stroke="none">
<path d="M1101 3210 c-41 -22 -95 -59 -119 -82 -65 -63 -182 -217 -182 -239 0
-11 -54 -93 -120 -183 -66 -91 -120 -174 -120 -186 0 -18 -103 -173 -158 -237
-11 -12 -39 -28 -62 -35 -53 -16 -74 -45 -61 -82 6 -15 18 -26 29 -26 12 0 28
-21 50 -65 35 -71 41 -115 17 -115 -19 0 -20 -46 -1 -97 7 -21 21 -63 30 -94
24 -82 68 -144 123 -170 46 -22 47 -22 132 -6 134 26 277 47 322 47 58 0 107
26 136 74 14 23 33 52 42 65 9 13 30 45 46 71 17 26 47 72 67 101 55 78 47
102 -17 58 -16 -11 -42 -26 -56 -34 -25 -14 -27 -13 -22 5 8 29 -17 25 -65
-10 -48 -34 -52 -36 -52 -15 0 18 -17 19 -49 1 -20 -11 -31 -10 -79 8 -32 11
-57 27 -59 37 -3 10 -25 25 -51 33 -56 20 -82 20 -82 2 0 -7 -9 -16 -19 -19
-16 -4 -23 5 -39 46 l-19 51 24 25 c12 14 23 29 23 34 0 4 60 86 133 180 72
95 165 217 206 272 41 55 90 110 110 123 l35 24 18 -24 c10 -13 21 -34 24 -48
3 -14 32 -79 64 -145 63 -128 126 -303 136 -379 6 -42 5 -46 -14 -46 -31 0
-43 -32 -40 -102 3 -60 4 -62 35 -70 30 -8 31 -11 37 -71 3 -34 6 -69 7 -77 1
-8 -2 -150 -6 -315 -7 -259 -10 -307 -27 -349 -23 -60 -34 -172 -18 -191 7 -8
12 -39 12 -70 0 -30 5 -55 9 -55 5 0 9 -7 9 -15 0 -8 6 -15 13 -15 8 0 24 -11
37 -25 l23 -25 -34 -1 c-19 0 -50 -2 -69 -4 -19 -2 -75 -6 -123 -10 -48 -5
-90 -12 -93 -16 -3 -5 -18 -9 -33 -9 -37 0 -108 -76 -117 -126 l-6 -34 -72 5
c-39 3 -90 8 -113 10 -49 5 -48 6 -33 -75 7 -39 6 -69 -5 -123 -8 -39 -13 -73
-10 -75 2 -3 293 -43 646 -90 504 -66 643 -82 649 -72 4 7 11 30 14 52 l6 39
78 -8 c93 -9 158 -7 192 6 14 5 72 24 130 41 58 17 116 35 130 40 14 5 72 23
130 41 196 59 215 79 214 219 0 90 -14 130 -56 170 -19 17 -35 20 -112 20 -50
0 -145 -7 -211 -15 -166 -21 -201 -20 -208 5 -4 17 -14 20 -61 20 -31 0 -56 4
-56 8 0 5 80 14 178 21 289 20 352 28 373 47 45 41 70 296 36 376 -9 21 -20
38 -25 38 -5 0 -15 27 -21 60 -7 34 -19 80 -28 103 -24 64 -24 159 -1 282 20
109 20 113 4 365 -27 407 -42 450 -189 535 -48 28 -89 58 -93 68 -3 11 -12 16
-20 13 -8 -3 -29 3 -47 14 -17 11 -42 20 -55 20 -12 0 -39 10 -60 23 -20 13
-45 26 -55 30 -14 5 -358 -92 -669 -189 -12 -4 -30 22 -78 112 -35 64 -70 119
-79 121 -9 2 -53 72 -97 156 l-82 151 14 39 c18 51 18 53 -8 77 -36 33 -99 27
-187 -20z m9 -234 c0 -8 -7 -16 -15 -20 -12 -4 -13 -2 -2 14 14 24 17 25 17 6z
m-419 -513 l-116 -173 -38 0 c-21 0 -37 4 -35 8 15 35 115 162 128 162 9 0 46
43 85 98 51 73 73 96 81 88 9 -8 -18 -55 -105 -183z m1158 -69 c158 -61 192
-85 211 -151 6 -21 18 -137 26 -257 17 -238 17 -236 -38 -236 -14 0 -33 -3
-42 -6 -11 -4 -16 -1 -16 10 0 9 7 19 15 22 8 4 15 12 15 20 0 17 -48 19 -102
3 -40 -10 -48 -23 -23 -33 23 -9 18 -33 -9 -38 -19 -4 -22 -1 -18 15 5 20 -12
37 -40 37 -13 0 -18 -8 -18 -29 0 -26 -4 -30 -41 -36 -22 -4 -43 -5 -46 -2 -3
3 0 61 6 129 11 117 13 124 43 155 23 24 29 37 24 56 -3 14 -6 84 -7 155 0
126 -1 131 -24 146 -13 9 -30 13 -37 11 -12 -5 -26 14 -56 78 -9 17 41 4 177
-49z m905 -349 c8 -126 14 -230 13 -231 -3 -3 -228 -34 -245 -34 -7 0 -18 14
-23 30 -6 17 -18 30 -27 31 -10 0 -52 1 -94 2 -42 1 -78 4 -81 7 -6 6 20 420
26 426 2 3 94 24 203 47 l199 43 7 -45 c4 -25 14 -149 22 -276z m-510 88 c-3
-71 -8 -130 -10 -132 -2 -2 -4 55 -4 127 0 88 4 132 11 132 7 0 8 -39 3 -127z
m-46 -21 c3 -102 8 -143 19 -161 19 -30 12 -117 -12 -154 -15 -24 -55 -44 -55
-28 0 28 -31 439 -34 453 -3 12 4 18 23 21 60 9 56 18 59 -131z m562 -344 c0
-12 -8 -52 -25 -125 -7 -30 -18 -29 -105 7 -40 17 -83 30 -96 30 -21 0 -24 5
-24 34 0 33 2 35 43 41 23 3 67 9 97 14 82 13 110 13 110 -1z m-660 -59 c0
-25 -22 -47 -55 -53 -39 -8 -39 -8 -26 -53 8 -27 7 -33 -10 -38 -10 -4 -23 -3
-29 0 -13 8 -13 82 1 91 6 3 8 17 5 29 -5 21 -2 24 26 28 65 8 88 7 88 -4z
m45 -65 l-15 -59 6 54 c5 54 12 76 20 68 2 -2 -3 -30 -11 -63z m-357 20 c16
-29 2 -50 -39 -61 l-39 -10 0 33 c0 48 57 75 78 38z m832 -56 c0 -4 -20 -8
-44 -8 -35 0 -45 4 -49 19 -3 11 -3 22 0 25 7 6 93 -27 93 -36z m-845 -65 c-3
-16 -11 -30 -17 -32 -6 -2 -19 -12 -30 -23 -20 -20 -20 -20 -13 13 8 39 31 69
53 69 10 0 12 -7 7 -27z m-62 -238 c5 -28 3 -30 -24 -31 -21 -1 -29 3 -29 16
0 10 7 20 15 24 8 3 15 18 16 33 0 24 1 25 8 8 4 -11 11 -33 14 -50z m37 45
c6 -11 7 -20 2 -20 -6 0 -12 9 -15 20 -3 11 -3 20 -1 20 2 0 8 -9 14 -20z m85
-53 c37 -1 47 -21 23 -45 -20 -20 -38 -14 -38 13 0 20 -5 25 -25 25 -14 0 -25
-4 -25 -10 0 -5 -4 -10 -10 -10 -14 0 -13 23 2 38 8 8 15 8 24 1 8 -6 29 -11
49 -12z m-25 -42 c0 -16 -27 -32 -36 -22 -7 6 17 36 29 37 4 0 7 -7 7 -15z
m-50 -479 c0 -2 -9 -6 -20 -9 -11 -3 -20 -1 -20 4 0 5 9 9 20 9 11 0 20 -2 20
-4z m608 -32 c40 -11 23 -24 -33 -24 -51 0 -65 7 -48 23 8 9 50 9 81 1z m-745
-81 c-7 -2 -19 -2 -25 0 -7 3 -2 5 12 5 14 0 19 -2 13 -5z m-290 -30 c-7 -2
-19 -2 -25 0 -7 3 -2 5 12 5 14 0 19 -2 13 -5z"/>
</g>
</svg>
